<svg xmlns="http://www.w3.org/2000/svg" viewBox="0 0 25.87 20.71"><defs><style>.cls-1{fill:#e52928;}.cls-2{fill:#fae60d;}</style></defs><title>30x30</title><g id="Layer_2" data-name="Layer 2"><g id="Layer_1-2" data-name="Layer 1"><path d="M23.26,15.12a2.54,2.54,0,0,0,0-.39,7.06,7.06,0,0,1,0-.92c0-.48,0-1,0-1.43a1.51,1.51,0,0,0-.25-.85v0h1.57l.25,0c.09,0,.11,0,.08.11a3.39,3.39,0,0,0-.15.41,2.22,2.22,0,0,0,0,.45c0,.48-.06,1-.07,1.44,0,.31,0,.62,0,.93s0,.63,0,.94c0,.65,0,1.3,0,1.95v.15s0,.07-.09.07l-.49,0-.55,0h0c-.23,0-.24,0-.33-.21l-1.05-2.53c-.12-.29-.26-.58-.38-.88l0,0v1.25c0,.19,0,.39,0,.58s0,.41,0,.62a2,2,0,0,0,.25,1l.05.11v0H19.92l0-.07c.07-.11.15-.21.21-.32a.65.65,0,0,0,0-.2,5.21,5.21,0,0,0,.06-.88c0-.25,0-.49,0-.73,0-.61,0-1.21,0-1.81,0-.31,0-.61,0-.92s0-.45,0-.67a1.29,1.29,0,0,0-.19-.64c-.06-.11,0-.17.1-.17l1.06,0,.61,0h.08c.08,0,.1,0,.06.1A.48.48,0,0,0,22,12l.33.85.9,2.16a.93.93,0,0,1,0,.1Z"/><path class="cls-1" d="M19.22,5.33a3.62,3.62,0,0,1-.3,1.32A4.36,4.36,0,0,1,17.59,8.3a7,7,0,0,1-1.82,1c-.17.07-.35.09-.52.17s-.38.08-.56.15l-.18,0-.16.05h0l-.33,0-.18,0-.52,0a7.49,7.49,0,0,1-1.34,0c-.26,0-.51-.05-.76-.08h-.12a1.17,1.17,0,0,1-.38-.08h0a4,4,0,0,1-.6-.13,1.36,1.36,0,0,1-.39-.12c-.12,0-.25-.08-.37-.12l-.17-.07L9,9.21A2.72,2.72,0,0,1,8.57,9a7,7,0,0,1-.75-.44l-.13-.09A5.43,5.43,0,0,1,7,7.89a4.12,4.12,0,0,1-.56-.69,3.2,3.2,0,0,1-.34-.63,4,4,0,0,1-.24-.83s0-.11,0-.16A3.1,3.1,0,0,1,6.12,4a4.26,4.26,0,0,1,.93-1.33,6.06,6.06,0,0,1,1.41-1,6.37,6.37,0,0,1,1.11-.47A10.85,10.85,0,0,1,11.16.76c.31,0,.62-.06.92-.07h1.23a5.62,5.62,0,0,1,1.15.18,9.36,9.36,0,0,1,.91.24,7.41,7.41,0,0,1,1.57.71,5.85,5.85,0,0,1,1.31,1.07A3.6,3.6,0,0,1,19.2,5s0,.11,0,.16A1,1,0,0,1,19.22,5.33Z"/><path class="cls-2" d="M7.5,7.21A4.15,4.15,0,0,0,8.2,8a5.07,5.07,0,0,0,.72.49,7.31,7.31,0,0,0,1.81.73,8,8,0,0,0,1.82.26h.81c.27,0,.55,0,.82-.06a7.87,7.87,0,0,0,1.08-.19,5.42,5.42,0,0,0,1.23-.42A5.23,5.23,0,0,0,18,7.64a3.68,3.68,0,0,0,.82-1.3A3.09,3.09,0,0,0,19,4.72,3.62,3.62,0,0,0,18.14,3a6,6,0,0,0-1.69-1.28,7.57,7.57,0,0,0-1.56-.59A7.91,7.91,0,0,0,13.71.94,9.2,9.2,0,0,0,12.54.86c-.31,0-.61,0-.92.05a2.84,2.84,0,0,0-.71.11c-.29.1-.59.16-.88.25a6.37,6.37,0,0,0-.72.29,8,8,0,0,0-.88.54,4.54,4.54,0,0,0-1.3,1.49,3.16,3.16,0,0,0-.35,1.24,3.71,3.71,0,0,0,0,.94,2.68,2.68,0,0,0,.29.82A4.57,4.57,0,0,0,7.5,7.21Z"/><path d="M6.94,6.27a.65.65,0,0,0,0-.13l.24-.95.32-1.25c0-.07,0-.11.13-.11H8.2c.09,0,.12,0,.15.11.08.31.17.61.26.92,0,0,0,.1,0,.17A.3.3,0,0,0,8.73,5l.86-1.08a.15.15,0,0,1,.09,0h1.93c.07,0,.09,0,.07.11l-.06.21L11,6.52a.14.14,0,0,1-.08.09h-.69s-.06,0-.05-.09a2.33,2.33,0,0,1,.07-.25c0-.17.09-.34.14-.51l.33-1.38s0-.08,0-.1l-.23-.17A.44.44,0,0,1,10.34,4s0,.05,0,.07a2.86,2.86,0,0,0-.07.28L9.9,5.61c-.08.32-.17.63-.25.94,0,.06-.05.06-.08.06H9c-.09,0-.11,0-.08-.11l.3-1.15s0-.08,0-.12h0a.08.08,0,0,0,0,0l-.28.36-.47.58a.08.08,0,0,1-.08,0s0,0-.05-.06l0-.13-.2-.62C8,5.36,8,5.3,8,5.23H8l0,.09c-.1.4-.21.8-.31,1.2l-.15.59h0l0,.13A5.33,5.33,0,0,1,6.94,6.27Z"/><path d="M17.07,17.9l-.24,0-1.14,0-.51,0h-.06a.07.07,0,0,1-.06-.1.36.36,0,0,1,0-.11,1.77,1.77,0,0,0,.19-.68c0-.24,0-.49.05-.74a3.65,3.65,0,0,0,0-.47c0-.34,0-.69,0-1,0-.56,0-1.12,0-1.68a9,9,0,0,0-.06-1,1.3,1.3,0,0,0-.13-.36.84.84,0,0,0-.06-.14.07.07,0,0,1,.06-.1h2.75a1.49,1.49,0,0,1,1.4,1.13,3.54,3.54,0,0,1,.12,1.12A2.19,2.19,0,0,1,19,15a1.87,1.87,0,0,1-.6.48c-.12,0-.11.06,0,.16L19.11,17c.09.16.17.32.27.47a2.69,2.69,0,0,0,.2.27s0,0,0,0a.22.22,0,0,1,0,.11.13.13,0,0,1-.09.05h-.46l-.23,0h-.95c-.11,0-.12,0-.11-.13a.7.7,0,0,0,0-.38c-.18-.42-.35-.83-.53-1.24a2.36,2.36,0,0,0-.12-.28.31.31,0,0,0-.27-.22c-.1,0-.14,0-.13.13s0,.44,0,.66,0,.44,0,.66a1.27,1.27,0,0,0,.17.61ZM17,14.46h0c.16,0,.32,0,.47-.08A.67.67,0,0,0,18,13.9a1.25,1.25,0,0,0-.07-.79.58.58,0,0,0-.35-.32,1.86,1.86,0,0,0-.7-.07c-.1,0-.13,0-.12.14a11.53,11.53,0,0,1,0,1.44v.07c0,.06,0,.09.1.09Z"/><path d="M2.66,17.89l-.23,0H.89c-.1,0-.12,0-.08-.12s0,0,0,0a3,3,0,0,0,.39-1.11l.33-1.43c.05-.27.09-.54.15-.81.1-.55.21-1.1.32-1.65a4,4,0,0,0,.05-.84A1.65,1.65,0,0,0,2,11.61c0-.09,0-.11.08-.11H4.65c.07,0,.1,0,.08.11l0,.05a1.23,1.23,0,0,0-.09.5,5.18,5.18,0,0,0,.18,1.17c.14.68.29,1.37.43,2.06.12.54.23,1.08.36,1.62a4.93,4.93,0,0,0,.24.64.64.64,0,0,0,.1.13.07.07,0,0,1,0,.12.25.25,0,0,1-.14,0c-.31,0-.62,0-.93,0l-.54,0H4.07C4,17.9,4,17.85,4,17.78a1.3,1.3,0,0,0,.11-.58.3.3,0,0,0,0-.1A.13.13,0,0,0,4,17c-.38,0-.76,0-1.14,0l-.19,0a.1.1,0,0,0-.09.1,1,1,0,0,0,.09.69Zm.64-2.21h.45c.1,0,.13,0,.11-.14s-.07-.37-.1-.56L3.55,13.7c0-.26-.08-.53-.13-.79,0,0,0-.09-.07-.09s-.06,0-.06.09L3,14.36l-.24,1.18c0,.1,0,.14.11.14Z"/><path d="M10.2,14.85V14.5a3.75,3.75,0,0,1,.13-1.11,5.53,5.53,0,0,1,.28-.9,1.78,1.78,0,0,1,1.11-1.07,2,2,0,0,1,.43-.07,2.39,2.39,0,0,1,1.06.13,1.78,1.78,0,0,1,1,1.07,4.68,4.68,0,0,1,.28,1.1,6.31,6.31,0,0,1,.07.76c0,.28,0,.57,0,.86a3.59,3.59,0,0,1-.6,1.91,2,2,0,0,1-1.34.88,1.65,1.65,0,0,1-.85-.09A2.13,2.13,0,0,1,10.62,17a3.2,3.2,0,0,1-.34-1A4.66,4.66,0,0,1,10.2,14.85Zm3-.31s0-.09,0-.15c-.06-.38-.11-.76-.18-1.15a.68.68,0,0,0-.55-.61.4.4,0,0,0-.47.22,3.65,3.65,0,0,0-.38,1.59,6.88,6.88,0,0,0,.05,1.11,2.15,2.15,0,0,0,.32,1,.43.43,0,0,0,.78,0A1.7,1.7,0,0,0,13,16.1,6.19,6.19,0,0,0,13.19,14.54Z"/><path d="M14.52,10l1.35-.28a5,5,0,0,0,2.11-1,4.7,4.7,0,0,0,1.41-1.83,3.64,3.64,0,0,0,.31-1.46,3.58,3.58,0,0,0-.36-1.53A5.5,5.5,0,0,0,17.78,2,7.46,7.46,0,0,0,15.54.77,9.37,9.37,0,0,0,14.06.42,8.6,8.6,0,0,0,12.38.34,9.3,9.3,0,0,0,8.25,1.45,6.65,6.65,0,0,0,6.68,2.61,4.66,4.66,0,0,0,5.56,4.33a3.17,3.17,0,0,0-.17,1.22A3.27,3.27,0,0,0,5.86,7,5.66,5.66,0,0,0,7,8.29,9.23,9.23,0,0,0,8.61,9.34a9.94,9.94,0,0,0,1.67.73l.08,0v0H.09C0,10.14,0,10.12,0,10A.65.65,0,0,0,0,9.9c0-.07,0-.1.09-.1H8.72v0l-.06,0A9.87,9.87,0,0,1,7.14,8.8,6.08,6.08,0,0,1,5.52,7,3.21,3.21,0,0,1,5.1,5.89a3.54,3.54,0,0,1,0-.86A4,4,0,0,1,5.92,3,6.45,6.45,0,0,1,7.84,1.3,9.37,9.37,0,0,1,10.73.21,9.93,9.93,0,0,1,12.53,0,10.6,10.6,0,0,1,14,.09a8.3,8.3,0,0,1,2.3.65,7.48,7.48,0,0,1,2.09,1.39,5.9,5.9,0,0,1,1.13,1.45A4,4,0,0,1,20,5a4.1,4.1,0,0,1-.75,2.86,5.66,5.66,0,0,1-2.12,1.85L17,9.75h8.74c.11,0,.12,0,.12.12v.16s0,.06-.07.06H16.91l-1.88,0h-.51Z"/><path d="M10,17.32a1.28,1.28,0,0,0-.69.3,3.68,3.68,0,0,1-.5.3,1.3,1.3,0,0,1-.39.09c-.12,0-.25,0-.37,0a1.43,1.43,0,0,1-.92-.34,2.52,2.52,0,0,1-.58-.76A3.63,3.63,0,0,1,6.1,15.5c0-.16-.06-.31-.07-.47s0-.19,0-.28a4.44,4.44,0,0,1,.42-2.1,2.45,2.45,0,0,1,.74-1A1.62,1.62,0,0,1,8,11.39a2.46,2.46,0,0,1,1,.08l.34.13a.7.7,0,0,0,.32.06c.1,0,.13,0,.09.13s-.13.37-.2.55-.22.54-.32.81l0,.06a.14.14,0,0,1-.13.07c-.06,0-.07,0-.08-.09a.83.83,0,0,0-.29-.4.61.61,0,0,0-.81.14,2.28,2.28,0,0,0-.41,1,4,4,0,0,0-.09.84,2.62,2.62,0,0,0,.14.73c0,.12.08.25.13.37a1.19,1.19,0,0,0,.48.6A.54.54,0,0,0,9,16.16c0-.07,0-.16.09-.24s.07-.1.13,0l.44.7.26.43Z"/><path d="M4.31,20.05H0c0-.08,0-.15,0-.22s0-.13.13-.13l.23,0h4Z"/><path d="M21.58,20.05a1.65,1.65,0,0,1,0-.21c0-.11,0-.14.15-.14l2.67,0h1.38c.11,0,.12,0,.11.12V20c0,.08,0,.09-.1.09H21.58Z"/><path d="M12.73,20l.06.06c.07.07.1.08.2,0l.1-.06.08-.06c.1.08.11.15,0,.24a.08.08,0,0,0,0,0c-.1.11-.1.14,0,.24a.17.17,0,0,1,.08.16c0,.05,0,.08-.07.05l-.25-.1a.14.14,0,0,0-.16,0,.83.83,0,0,1-.91,0,.54.54,0,0,1-.15-.15.29.29,0,0,1,.08-.37s.08-.06.08-.09,0-.07-.06-.11a.29.29,0,0,1,.12-.44.85.85,0,0,1,.76,0,.3.3,0,0,1,.08.53Zm-.43.11a.43.43,0,0,0-.3.11.12.12,0,0,0,0,.19.47.47,0,0,0,.38.1.84.84,0,0,0,.25-.09c.1-.05.11-.11,0-.19A.46.46,0,0,0,12.3,20.08Zm0-.54a.34.34,0,0,0-.24.07c-.07.06-.08.13,0,.18a.54.54,0,0,0,.21.08.42.42,0,0,0,.32-.09c.05-.06.05-.11,0-.15A.43.43,0,0,0,12.33,19.54Z"/><path class="cls-1" d="M15.4,20.43a.2.2,0,0,0-.21-.2h-.41a.19.19,0,0,0-.18.11c0,.05,0,.09,0,.12s0,.08,0,.13,0,.05-.09.05H14.2c-.06,0-.08,0-.07-.08V20.5s0-.06,0-.05a.13.13,0,0,0,.15-.09l.48-.94a.12.12,0,0,1,.13-.08.28.28,0,0,1,.25.15l.42.81c0,.07.08.14.18.13h0c.06,0,0,.11,0,.16s0,0-.05,0h-.43s0,0,0-.05,0-.1,0-.13ZM14.79,20h.4L15,19.6Z"/><path class="cls-1" d="M19.53,20a.63.63,0,0,1,.6-.7.78.78,0,0,1,.59.13.67.67,0,0,1-.33,1.2,1,1,0,0,1-.46-.06A.61.61,0,0,1,19.53,20Zm.73.42h.09a.43.43,0,0,0,.36-.22.47.47,0,0,0-.17-.61.53.53,0,0,0-.68.09.44.44,0,0,0,0,.5A.45.45,0,0,0,20.26,20.46Z"/><path class="cls-1" d="M17.22,19.89v-.23c0-.05,0-.07-.06-.07s-.09,0-.09-.13,0-.08.08-.08h.4s.06,0,.07.07,0,.13-.1.15-.06.07-.06.13v.37a.48.48,0,0,1-.39.53.9.9,0,0,1-.46.05.84.84,0,0,1-.38-.21.4.4,0,0,1-.11-.33v-.45a.1.1,0,0,0-.08-.11.1.1,0,0,1-.06-.17s0,0,.05,0h.41c.06,0,.08,0,.08.08s0,.1-.1.12a.14.14,0,0,0-.07.06v.47a.3.3,0,0,0,.24.31.65.65,0,0,0,.39,0,.3.3,0,0,0,.24-.31,1.76,1.76,0,0,0,0-.23Z"/><path class="cls-1" d="M19.26,19.72h-.12c-.06,0-.1,0-.11-.08s0,0-.06,0a2.09,2.09,0,0,0-.25,0s0,0,0,0v.72c0,.05,0,.07.06.07s.09,0,.08.08v.11h-.52s0-.07,0-.1,0-.1.08-.1.07,0,.07-.07v-.69c0-.05,0-.08-.07-.07h-.29s0,.09,0,.1h-.17s0,0,0-.06a1.8,1.8,0,0,1,0-.22s0-.05.06-.05h1.29s.07,0,.07.07Z"/><path class="cls-1" d="M7.84,20.64H7.39c-.06,0-.09,0-.09-.08v-.11h.06c.06,0,.08,0,.08-.1v-.66a.09.09,0,0,0-.05-.07.17.17,0,0,1-.1-.13.08.08,0,0,1,.07-.1H8.47a.42.42,0,0,1,.31.17.33.33,0,0,1-.16.5c-.11.05-.11,0-.07.16a.52.52,0,0,0,.08.19s.07.05.13,0,.09,0,.09.07a.14.14,0,0,1-.09.14.29.29,0,0,1-.4-.16c0-.09-.07-.2-.11-.3a.09.09,0,0,0-.09-.08H7.78c-.06,0-.11,0-.1.11v.08c0,.1,0,.12.11.13s.06,0,.06,0v.07A.28.28,0,0,1,7.84,20.64Zm.2-.7H8l.37,0a.16.16,0,0,0,.15-.17.15.15,0,0,0-.15-.16q-.33,0-.66,0c-.06,0-.09,0-.09.11s0,.11,0,.17,0,.06.07.06Z"/><path class="cls-1" d="M10.45,20.43v-.16a.05.05,0,0,1,.06-.06c.21,0,.19,0,.18.18v.24H9.29s-.09,0-.09,0-.06-.15.06-.16a.09.09,0,0,0,.07-.09V19.7a.11.11,0,0,0-.05-.09c-.07,0-.07-.08-.07-.14v-.08h1.43v.36h-.21a.43.43,0,0,0,0-.05c0-.08,0-.1-.1-.1H9.66c-.06,0-.08,0-.08.07s0,.22.2.22H10c.08,0,.09,0,.08.09v0c0,.07,0,.09-.09.09H9.67c-.07,0-.09,0-.09.09a.53.53,0,0,1,0,.13c0,.11,0,.11.11.11h.75Z"/><path class="cls-1" d="M4.89,19.72H4.7a2.8,2.8,0,0,1,0-.29s0,0,0,0H6.13v.27h0c0,.09-.12,0-.18,0s-.07,0-.06-.06a.06.06,0,0,0-.07-.07H5.61c-.05,0-.07,0-.07.06,0,.23,0,.46,0,.69,0,.06,0,.09.08.09s.07,0,.07.07,0,.13-.13.13H5.22s-.09,0-.09-.07,0-.13.08-.13.08,0,.08-.09v-.67c0-.06,0-.09-.08-.08H5C4.92,19.6,4.93,19.57,4.89,19.72Z"/><path class="cls-1" d="M6.56,20.09v-.33c0-.08,0-.14-.1-.16s-.07-.09-.07-.15.05-.06.09-.06h.4a.14.14,0,0,1,.07.06.14.14,0,0,1,0,.11s0,0-.07,0-.07,0-.07.08v.68s0,.08.07.09a.11.11,0,0,1,.07.17s0,0-.05,0H6.46s-.07,0-.06-.06v-.07s0-.06,0-.07.11,0,.11-.12Z"/><path d="M16.11,6.61H15c-.11,0-.13,0-.12-.12s0-.28.05-.42,0-.13-.11-.13h-.19c-.1,0-.14,0-.18.1s-.11.3-.17.45,0,.12-.16.12h-.62c-.1,0-.11,0-.07-.11l.66-1.45.48-1s0,0,0,0,.11-.15.22-.15h1c.11,0,.12,0,.1.12a1.23,1.23,0,0,0,0,.27c0,.33,0,.65-.07,1,0,.16,0,.33,0,.49s0,.13,0,.19,0,.1.09.1h1c.11,0,.15,0,.17-.14s.05-.2.08-.29,0-.08-.06-.08h-.62A.41.41,0,0,1,16.12,5c.08-.28.15-.56.23-.84a.08.08,0,0,1,0,0A.83.83,0,0,1,17,3.83c.35,0,.7,0,1.06,0,.11,0,.13,0,.1.13s-.05.26-.08.39,0,.08-.1.08h-.81a.12.12,0,0,0-.13.1c0,.11-.06.22-.08.32s0,.06.07.06h.33l.42,0,.13,0a.22.22,0,0,1,.12.17,1.1,1.1,0,0,1,0,.44,4.6,4.6,0,0,1-.13.5.71.71,0,0,1-.71.51Zm-1.36-1.2H15c.11,0,.11,0,.12-.11s0-.44.08-.66V4.47h0C15,4.78,14.84,5.07,14.75,5.41Z"/><path d="M12.87,3.83h.68a.38.38,0,0,1,.28.12.26.26,0,0,1,.07.11.89.89,0,0,1,0,.46c-.06.2-.12.41-.17.62s-.14.59-.23.88a.79.79,0,0,1-.8.59H11.54c-.11,0-.14,0-.12-.14l.24-.86.26-1L12.07,4c0-.19,0-.19.22-.19h.58ZM12.52,6c.19,0,.2,0,.23-.19s0-.17.05-.26c.09-.34.18-.69.28-1,0-.09,0-.11-.09-.12h-.15a.12.12,0,0,0-.13.1c-.06.27-.12.54-.19.81s-.1.35-.14.52S12.34,6,12.52,6Z"/><path class="cls-1" d="M11.91,2.85a.53.53,0,0,1-.22.48.42.42,0,0,1-.57-.07.53.53,0,0,1,.2-.89.41.41,0,0,1,.19,0A.52.52,0,0,1,11.91,2.85Z"/><path d="M18.61,4.6a.2.2,0,0,1-.24-.16v0a.2.2,0,0,1,.19-.18.23.23,0,0,1,.26.15c0,.09,0,.17-.15.2Zm0,0h.09c.06,0,.11-.06.12-.14a.14.14,0,0,0-.11-.13.21.21,0,0,0-.19,0,.15.15,0,0,0-.1.13.15.15,0,0,0,.09.13Z"/><path d="M18.65,4.53l-.07-.11,0,.11a.3.3,0,0,1,0-.22.16.16,0,0,1,.09,0s.05,0,.05.06,0,.06,0,.09a.24.24,0,0,0,0,.08Z"/></g></g></svg>